<?xml version="1.0" standalone="no"?>
<!DOCTYPE svg PUBLIC "-//W3C//DTD SVG 1.1//EN" "http://www.w3.org/Graphics/SVG/1.1/DTD/svg11.dtd">
<svg xmlns="http://www.w3.org/2000/svg">
<metadata>Copyright (C) 2019 by original authors @ fontello.com</metadata>
<defs>
<font id="fontello" horiz-adv-x="1000" >
<font-face font-family="fontello" font-weight="400" font-stretch="normal" units-per-em="1000" ascent="850" descent="-150" />
<missing-glyph horiz-adv-x="1000" />
<glyph glyph-name="facebook" unicode="&#xe800;" d="M579-145q-4-1-9-1 5 0 9 1z m0 0m11 1l-4-1z m0 0m-35-4q-5 0-11-1 6 1 11 1z m0 0m11 1l-6 0z m0 0m38 5l-4 0z m0 0m34 7l-4-1z m0 0m-11-2l-3-1z m0 0m-13-3l-4-1z m0 0m-73-9l-6 0z m0 0m459 499a500 500 0 1 1-500-500l9 0v389h-108v126h108v92a150 150 0 0 0 161 165 884 884 0 0 0 96-5v-112h-66c-52 0-62-24-62-61v-80h124l-16-125h-108v-370a500 500 0 0 1 362 481z m0 0m-469-499q-6-1-12-1 6 0 12 1z m0 0m-15-1l-6 0z m0 0" horiz-adv-x="1000" />

<glyph glyph-name="linkedin" unicode="&#xe801;" d="M500 850a500 500 0 1 1 500-500 500 500 0 0 1-500 500z m-145-756h-122v367h122z m-61 417h-1a64 64 0 1 0 2 126 64 64 0 1 0-1-126z m500-417h-122v196c0 49-18 83-62 83a67 67 0 0 1-62-44 83 83 0 0 1-4-30v-205h-122s1 332 0 367h122v-52a121 121 0 0 0 110 60c80 0 140-52 140-165z m0 0" horiz-adv-x="1000" />

<glyph glyph-name="flags" unicode="&#xe802;" d="M362 850a363 363 0 0 1-362-362c0-248 324-612 338-627a33 33 0 0 1 49 0c13 15 338 379 338 627a363 363 0 0 1-363 362z m0-544a182 182 0 1 0 182 182 182 182 0 0 0-182-182z" horiz-adv-x="724" />

<glyph glyph-name="twitter" unicode="&#xe803;" d="M500 850a500 500 0 1 1 500-500 500 500 0 0 1-500 500z m228-390q1-7 1-15a324 324 0 0 0-327-326h0a325 325 0 0 0-176 51 233 233 0 0 1 28-1 230 230 0 0 1 142 49 115 115 0 0 0-107 80 114 114 0 0 1 52 2 115 115 0 0 0-92 112c0 1 0 1 0 2a114 114 0 0 1 52-15 115 115 0 0 0-36 153 326 326 0 0 1 237-119 115 115 0 0 0 195 104 230 230 0 0 1 73 28 115 115 0 0 0-50-63 229 229 0 0 1 65 18 233 233 0 0 0-57-60z m0 0" horiz-adv-x="1000" />

<glyph glyph-name="left-open-big" unicode="&#xe804;" d="M452-20q26-26 0-48-26-26-48 0l-392 394q-24 24 0 50l392 394q22 26 48 0 26-22 0-48l-358-372z" horiz-adv-x="465" />

<glyph glyph-name="info" unicode="&#xe805;" d="M500 850a500 500 0 1 1 500-500 500 500 0 0 1-500 500z m104-775q-38-15-61-23a163 163 0 0 0-54-8 107 107 0 0 0-73 23 74 74 0 0 0-25 58 210 210 0 0 0 2 27c1 10 3 20 6 33l32 113c3 11 5 22 7 31a137 137 0 0 1 3 27 41 41 0 0 1-9 30 51 51 0 0 1-34 9 90 90 0 0 1-26-4c-9-3-16-5-22-7l8 35q32 13 61 22a179 179 0 0 0 54 9 105 105 0 0 0 72-22 75 75 0 0 0 25-59q0-7-2-26a175 175 0 0 0-6-34l-32-113c-3-10-5-20-7-32a165 165 0 0 1-3-26 38 38 0 0 1 10-31 57 57 0 0 1 35-8 102 102 0 0 1 26 4 151 151 0 0 1 22 7z m-5 460a76 76 0 0 0-54-20 77 77 0 0 0-55 21 67 67 0 0 0-23 50 67 67 0 0 0 23 51 77 77 0 0 0 54 21 76 76 0 0 0 54-21 68 68 0 0 0 0-101z" horiz-adv-x="1000" />

<glyph glyph-name="statistics" unicode="&#xe806;" d="M148 381a87 87 0 0 1 61 25l87-43a86 86 0 0 1-1-11 88 88 0 1 1 176 0 87 87 0 0 1-9 38l118 117a87 87 0 0 1 37-8 88 88 0 0 1 88 87 87 87 0 0 1-4 27l102 76a88 88 0 1 1-39 73 87 87 0 0 1 4-26l-102-77a87 87 0 0 1-128-110l-117-118a86 86 0 0 1-99-16l-87 44a86 86 0 0 1 2 10 88 88 0 1 1-88-88z m0 0m823-472h-32v619a29 29 0 0 1-29 29h-117a29 29 0 0 1-29-29v-619h-59v443a29 29 0 0 1-29 29h-117a29 29 0 0 1-30-29v-443h-58v209a29 29 0 0 1-30 29h-117a29 29 0 0 1-29-29v-209h-59v326a29 29 0 0 1-29 29h-117a29 29 0 0 1-29-29v-326h-32a29 29 0 0 1 0-59h942a29 29 0 0 1 0 59z m0 0" horiz-adv-x="1000" />

<glyph glyph-name="man-with-company" unicode="&#xe807;" d="M766 19h-34v709a33 33 0 0 1-32 33h-88v57a33 33 0 0 1-33 32h-361a33 33 0 0 1-33-32v-57h-88a33 33 0 0 1-32-33v-709h-34a31 31 0 0 1-31-32v-106a31 31 0 0 1 31-31h735a31 31 0 0 1 31 31v106a31 31 0 0 1-31 32z m-491 133a9 9 0 0 0-9-9h-118a9 9 0 0 0-9 9v118a9 9 0 0 0 9 9h118a9 9 0 0 0 9-9z m0 188a9 9 0 0 0-9-9h-118a9 9 0 0 0-9 9v118a9 9 0 0 0 9 9h118a9 9 0 0 0 9-9z m0 191a9 9 0 0 0-9-9h-118a9 9 0 0 0-9 9v117a9 9 0 0 0 9 9h118a9 9 0 0 0 9-9z m191-538a9 9 0 0 0-9-9h-117a9 9 0 0 0-9 9v277a9 9 0 0 0 9 9h117a9 9 0 0 0 9-9z m0 347a9 9 0 0 0-9-9h-117a9 9 0 0 0-9 9v118a9 9 0 0 0 9 9h117a9 9 0 0 0 9-9z m0 191a9 9 0 0 0-9-9h-117a9 9 0 0 0-9 9v117a9 9 0 0 0 9 9h117a9 9 0 0 0 9-9z m193-379a9 9 0 0 0-9-9h-118a9 9 0 0 0-9 9v118a9 9 0 0 0 9 9h118a9 9 0 0 0 9-9z m0 188a9 9 0 0 0-9-9h-118a9 9 0 0 0-9 9v118a9 9 0 0 0 9 9h118a9 9 0 0 0 9-9z m0 191a9 9 0 0 0-9-9h-118a9 9 0 0 0-9 9v117a9 9 0 0 0 9 9h118a9 9 0 0 0 9-9z" horiz-adv-x="797" />

<glyph glyph-name="star" unicode="&#xe808;" d="M1021 397a75 75 0 0 1-41 128l-253 37a33 33 0 0 0-25 18l-113 228a75 75 0 0 1-134 0l-113-229a33 33 0 0 0-25-17l-253-37a75 75 0 0 1-41-128l183-178a33 33 0 0 0 9-29l-43-252a73 73 0 0 1 16-61 76 76 0 0 1 92-18l226 119a34 34 0 0 0 31 0l226-119a74 74 0 0 1 35-9 75 75 0 0 1 57 27 73 73 0 0 1 17 61l-43 251a33 33 0 0 0 9 30z" horiz-adv-x="1044" />

<glyph glyph-name="file" unicode="&#xe809;" d="M517 850h-517v-1000h782v735z m-353-218h181a18 18 0 1 0 0-37h-181a18 18 0 0 0 0 37z m454-618h-454a18 18 0 0 0 0 36h454a18 18 0 0 0 0-36z m0 145h-454a18 18 0 1 0 0 36h454a18 18 0 0 0 0-36z m0 146h-454a18 18 0 0 0 0 36h454a18 18 0 0 0 0-36z m0 145h-454a18 18 0 0 0 0 36h454a18 18 0 0 0 0-36z m-127 109v255l254-255z" horiz-adv-x="782" />

<glyph glyph-name="filter-tool-black-shape" unicode="&#xe80a;" d="M997 822a43 43 0 0 1-42 28h-909a43 43 0 0 1-42-28 41 41 0 0 1 10-49l351-350v-346a44 44 0 0 1 13-32l182-182a42 42 0 0 1 32-13 49 49 0 0 1 18 3 43 43 0 0 1 27 42v528l350 350a41 41 0 0 1 10 49z" horiz-adv-x="1001" />

<glyph glyph-name="surface1" unicode="&#xe80b;" d="M426 541a191 191 0 1 1 190-191 191 191 0 0 1-190 191z m113-155l-137-137a29 29 0 0 0-41 0l-52 53a29 29 0 0 0 41 41l32-31 116 116a29 29 0 0 0 41-42z m0 0m312 193v1c-1 9-1 19-1 31a106 106 0 0 1-100 103 412 412 0 0 0-280 118l-1 1a64 64 0 0 1-87 0l0-1a412 412 0 0 0-280-118 106 106 0 0 1-100-103c0-12-1-22-1-32v-1c-2-118-5-264 44-396a504 504 0 0 1 121-188 632 632 0 0 1 236-140 73 73 0 0 1 10-3 72 72 0 0 1 28 0 74 74 0 0 1 10 3 632 632 0 0 1 236 140 504 504 0 0 1 120 188c50 133 47 279 45 397z m-425-478a249 249 0 1 0 249 249 250 250 0 0 0-249-249z m0 0" horiz-adv-x="852" />

<glyph glyph-name="user" unicode="&#xe80c;" d="M353 351q139 0 237-99t98-236q0-47-33-80t-79-33l-446 0q-46 0-79 33t-33 80q0 138 98 236t237 99z m-167 279q0 167 167 167 168 0 168-167 0-168-168-168-167 0-167 168z" horiz-adv-x="705" />

<glyph glyph-name="ok" unicode="&#xe80d;" d="M933 534q0-22-16-38l-404-404-76-76q-16-15-38-15t-38 15l-76 76-202 202q-15 16-15 38t15 38l76 76q16 16 38 16t38-16l164-165 366 367q16 16 38 16t38-16l76-76q16-15 16-38z" horiz-adv-x="1000" />

<glyph glyph-name="padlock-unlock" unicode="&#xe80e;" d="M732 332a60 60 0 0 1-45 18h-479v208a161 161 0 0 0 49 118 167 167 0 0 0 236 0 161 161 0 0 0 49-118 42 42 0 0 1 41-41h42a42 42 0 0 1 42 41 281 281 0 0 1-86 206 291 291 0 0 1-412 0 281 281 0 0 1-86-206v-208h-20a62 62 0 0 1-63-62v-375a62 62 0 0 1 63-63h625a62 62 0 0 1 62 63v375a60 60 0 0 1-18 44z" horiz-adv-x="750" />

<glyph glyph-name="blog" unicode="&#xe80f;" d="M901 850h-809a92 92 0 0 1-92-92v-588a92 92 0 0 1 92-92h129v-173a55 55 0 0 1 95-37l193 210h392a92 92 0 0 1 92 92v588a92 92 0 0 1-92 92z m-305-551h-320a55 55 0 1 0 0 110h320a55 55 0 1 0 0-110z m121 220h-441a55 55 0 1 0 0 111h441a55 55 0 0 0 0-111z m0 0" horiz-adv-x="993" />

<glyph glyph-name="plus-circled" unicode="&#xe810;" d="M420 770q174 0 297-123t123-297-123-297-297-123-297 123-123 297 123 297 297 123z m52-470l200 0 0 102-200 0 0 202-102 0 0-202-202 0 0-102 202 0 0-202 102 0 0 202z" horiz-adv-x="840" />

<glyph glyph-name="cog" unicode="&#xe811;" d="M760 350q0-72 80-122-12-40-34-82-70 18-136-44-54-58-34-136-40-20-84-36-46 82-132 82t-132-82q-44 16-84 36 20 80-34 136-54 54-136 34-14 26-34 82 82 52 82 132 0 72-82 124 20 56 34 82 74-18 136 44 54 56 34 136 42 22 84 34 46-80 132-80t132 80q42-12 84-34-20-78 34-136 66-62 136-44 22-42 34-82-80-50-80-124z m-340-182q76 0 129 53t53 129-53 130-129 54-129-54-53-130 53-129 129-53z" horiz-adv-x="840" />

<glyph glyph-name="home" unicode="&#xe812;" d="M749 473a16 16 0 0 1-7 14l-230 178a17 17 0 0 1-22 0l-222-178a17 17 0 0 1-6-14v-321a18 18 0 0 1 5-13 17 17 0 0 1 12-5h132a17 17 0 0 1 18 18v197h152v-197a17 17 0 0 1 18-18h132a17 17 0 0 1 18 18z m-249 377a486 486 0 0 0 195-39 500 500 0 0 0 266-266 499 499 0 0 0 21-328 507 507 0 0 0-50-120 501 501 0 0 0-179-179 507 507 0 0 0-120-50 500 500 0 0 0-266 0 507 507 0 0 0-119 50 501 501 0 0 0-179 180 507 507 0 0 0-51 119 500 500 0 0 0 0 266 507 507 0 0 0 51 120 501 501 0 0 0 179 179 507 507 0 0 0 119 50 489 489 0 0 0 133 18z" horiz-adv-x="1000" />

<glyph glyph-name="star-empty" unicode="&#xe813;" d="M635 290l170 166-235 34-106 213-105-213-236-34 171-166-41-235 211 111 211-111z m294 199q0-12-15-27l-202-197 48-279q0-4 0-12 0-28-23-28-10 0-22 7l-251 132-250-132q-12-7-23-7-11 0-17 9t-6 19q0 4 1 12l48 279-203 197q-14 15-14 27 0 21 31 26l280 40 126 254q11 23 27 23t28-23l125-254 280-40q32-5 32-26z" horiz-adv-x="928.6" />

<glyph glyph-name="github" unicode="&#xe814;" d="M961 595a512 512 0 0 1-187 186 506 506 0 0 1-259 69 506 506 0 0 1-258-69 512 512 0 0 1-188-186 500 500 0 0 1-69-257 497 497 0 0 1 98-302 504 504 0 0 1 254-185 30 30 0 0 1 27 5 26 26 0 0 1 9 20q0 2-1 36t0 59l-15-3a198 198 0 0 0-38-2 285 285 0 0 0-46 5 104 104 0 0 0-45 20 85 85 0 0 0-30 41l-6 15a167 167 0 0 1-22 34 81 81 0 0 1-29 26l-5 3a49 49 0 0 0-8 8 37 37 0 0 0-6 9q-2 5 3 8a44 44 0 0 0 20 3l13-2a98 98 0 0 0 33-16 108 108 0 0 0 33-35 118 118 0 0 1 37-41 79 79 0 0 1 44-15 192 192 0 0 1 38 4 134 134 0 0 1 30 10 108 108 0 0 0 33 68 461 461 0 0 0-68 12 274 274 0 0 0-63 26 180 180 0 0 0-55 45 215 215 0 0 0-35 70 332 332 0 0 0-13 100 194 194 0 0 0 53 138 179 179 0 0 0 4 136 94 94 0 0 0 58-9 404 404 0 0 0 56-26q18-11 28-18a487 487 0 0 0 258 0l25 16a362 362 0 0 0 62 30 88 88 0 0 0 54 7 177 177 0 0 0 6-136 194 194 0 0 0 53-138 335 335 0 0 0-14-100 206 206 0 0 0-36-70 187 187 0 0 0-54-45 275 275 0 0 0-63-26 461 461 0 0 0-69-12 119 119 0 0 0 35-94v-141a27 27 0 0 1 8-20 29 29 0 0 1 27-5 504 504 0 0 1 254 185 497 497 0 0 1 98 302 500 500 0 0 1-69 257z" horiz-adv-x="1030" />

<glyph glyph-name="dribble" unicode="&#xe815;" d="M456 455a1342 1342 0 0 1-82 127 222 222 0 0 1-123-155 821 821 0 0 1 205 28z m-20 156a4 4 0 0 0-1-1l1 0z m224-56a222 222 0 0 1-199 49 1130 1130 0 0 0 83-129 242 242 0 0 1 116 80z m-129-276a301 301 0 0 1-174-139 221 221 0 0 1 223-29 924 924 0 0 1-48 168z m-45 55c3 1 6 1 9 2-6 13-12 25-18 38a814 814 0 0 0-228-32c0-2 0-4 0-7a221 221 0 0 1 57-148l0 0a352 352 0 0 0 180 147z m14 516a500 500 0 1 1 500-500 501 501 0 0 1-500 500z m308-563a312 312 0 0 0-47-113 323 323 0 0 0-39-46 314 314 0 0 0-398-38 320 320 0 0 0-46 38 313 313 0 0 0-38 46 315 315 0 0 0-48 239 313 313 0 0 0 48 113 317 317 0 0 0 38 46 314 314 0 0 0 46 38 317 317 0 0 0 54 29 314 314 0 0 0 297-29 320 320 0 0 0 47-38 315 315 0 0 0 85-285z m-190 11a956 956 0 0 0 44-159 222 222 0 0 1 95 149 322 322 0 0 1-139 10z m-35 123q8-16 15-32c2-4 3-8 5-12a515 515 0 0 0 154-7 221 221 0 0 1-50 139 285 285 0 0 0-124-88z" horiz-adv-x="1000" />

<glyph glyph-name="behance" unicode="&#xe816;" d="M416 434c0 36-24 36-24 36h-102v-78h95c17 0 31 5 31 42z m254-46a63 63 0 0 1-62-54h115a52 52 0 0 1-53 54z m-278-58h-102v-93h90c2 0 4 0 7 0 14 0 42 4 42 45 0 49-37 48-37 48z m108 520a500 500 0 1 1 500-500 501 501 0 0 1-500 500z m89-335h151v-45h-151z m-77-237c0-113-117-109-117-109h-192v368h192a94 94 0 0 0 104-98 64 64 0 0 0-56-70c74 0 69-91 69-91z m284 6h-191a60 60 0 0 1 65-64c61 0 59 39 59 39h65c0-105-126-98-126-98a131 131 0 0 0-142 141s0 141 142 141c149 0 128-159 128-159z" horiz-adv-x="1000" />

<glyph glyph-name="stack-overflow" unicode="&#xe817;" d="M626 321h45v-277h-439v277h45v-232h349c0 77 0 154 0 232z m-129 309l150-219 47 32-150 219z m141-227l-229 135-29-49 229-135c10 16 19 33 29 49z m77 315l-56-10c15-87 30-175 45-262l56 10q-23 131-45 262z m-111-380c-85 23-171 46-256 69l-15-55 257-69c5 18 9 37 14 55z m-24-147h-265v-57h265z m7 73c-89 8-177 16-265 24-2-19-3-38-5-56l265-25c1 19 3 38 5 57z" horiz-adv-x="1000" />

<glyph glyph-name="close-envelope" unicode="&#xe818;" d="M700 150l-173 152-495-425a101 101 0 0 1 69-27h1198a101 101 0 0 1 69 27l-495 425z m668 673a101 101 0 0 1-69 27h-1198a100 100 0 0 1-69-27l668-573z m-1368-61v-831l483 411z m917-420l483-411v832z" horiz-adv-x="1400" />

<glyph glyph-name="phone" unicode="&#xe819;" d="M494 850h-421a73 73 0 0 1-73-73v-854a73 73 0 0 1 73-73h421a73 73 0 0 1 72 73v854a73 73 0 0 1-72 73z m-314-44h207c5 0 10-8 10-18s-4-17-10-17h-208c-5 0-9 8-9 17s4 18 9 18z m103-884a47 47 0 1 0 47 46 47 47 0 0 0-47-46z m229 159h-457v646h457v-646z" horiz-adv-x="566" />

<glyph glyph-name="portfolio" unicode="&#xe821;" d="M469 317h200v-67h-200z m0 0m454-67h-187v-33a33 33 0 0 0-34-34h-266a33 33 0 0 0-34 34v33h-187a100 100 0 0 0-95 68l-120 360v-728a100 100 0 0 1 100-100h938a100 100 0 0 1 100 100v728l-120-360a100 100 0 0 0-95-68z m0 0m-221 600h-266a100 100 0 0 1-100-100v-33h-279l126-377a33 33 0 0 1 32-23h187v33a33 33 0 0 0 34 33h266a33 33 0 0 0 34-33v-33h187a33 33 0 0 1 32 22l125 378h-278v33a100 100 0 0 1-100 100z m-300-133v33a33 33 0 0 0 34 33h266a33 33 0 0 0 34-33v-33z m0 0" horiz-adv-x="1138" />

<glyph glyph-name="dot-circled" unicode="&#xf192;" d="M571 350q0-59-41-101t-101-42-101 42-42 101 42 101 101 42 101-42 41-101z m-142 304q-83 0-153-41t-110-111-41-152 41-152 110-111 153-41 152 41 110 111 41 152-41 152-110 111-152 41z m428-304q0-117-57-215t-156-156-215-58-216 58-155 156-58 215 58 215 155 156 216 58 215-58 156-156 57-215z" horiz-adv-x="857.1" />
</font>
</defs>
</svg>
